<?xml version="1.0" encoding="UTF-8" standalone="no"?>
<svg
   xmlns:dc="http://purl.org/dc/elements/1.1/"
   xmlns:cc="http://creativecommons.org/ns#"
   xmlns:rdf="http://www.w3.org/1999/02/22-rdf-syntax-ns#"
   xmlns:svg="http://www.w3.org/2000/svg"
   xmlns="http://www.w3.org/2000/svg"
   xmlns:sodipodi="http://sodipodi.sourceforge.net/DTD/sodipodi-0.dtd"
   xmlns:inkscape="http://www.inkscape.org/namespaces/inkscape"
   width="148mm"
   height="210mm"
   viewBox="0 0 148 210"
   version="1.1"
   id="svg8"
   inkscape:version="1.0.2-2 (e86c870879, 2021-01-15)"
   sodipodi:docname="Book Cover 2.svg">
  <defs
     id="defs2">
    <rect
       x="15.715448"
       y="63.23597"
       width="83.441546"
       height="18.33469"
       id="rect1038" />
    <rect
       x="7.4835468"
       y="6.3610148"
       width="130.96207"
       height="21.702286"
       id="rect1026" />
    <rect
       x="5.0270833"
       y="163.24792"
       width="139.43542"
       height="37.835417"
       id="rect951" />
  </defs>
  <sodipodi:namedview
     id="base"
     pagecolor="#ffffff"
     bordercolor="#666666"
     borderopacity="1.0"
     inkscape:pageopacity="0.0"
     inkscape:pageshadow="2"
     inkscape:zoom="0.70710678"
     inkscape:cx="523.96734"
     inkscape:cy="426.56257"
     inkscape:document-units="mm"
     inkscape:current-layer="layer1"
     inkscape:document-rotation="0"
     showgrid="false"
     inkscape:window-width="1920"
     inkscape:window-height="1001"
     inkscape:window-x="-9"
     inkscape:window-y="-9"
     inkscape:window-maximized="1"
     inkscape:object-nodes="false" />
  <metadata
     id="metadata5">
    <rdf:RDF>
      <cc:Work
         rdf:about="">
        <dc:format>image/svg+xml</dc:format>
        <dc:type
           rdf:resource="http://purl.org/dc/dcmitype/StillImage" />
        <dc:title></dc:title>
      </cc:Work>
    </rdf:RDF>
  </metadata>
  <g
     inkscape:label="Layer 1"
     inkscape:groupmode="layer"
     id="layer1">
    <rect
       style="opacity:1;fill:#0085b0;fill-opacity:1;stroke-width:1.93298;stroke-linecap:round;stroke-linejoin:round"
       id="rect833"
       width="148.96042"
       height="211.1375"
       x="0"
       y="0"
       ry="1.4596831"
       sodipodi:insensitive="true" />
    <text
       xml:space="preserve"
       id="text949"
       style="font-style:normal;font-variant:normal;font-weight:normal;font-stretch:normal;font-size:17.3945px;line-height:1.25;font-family:Impact;-inkscape-font-specification:Impact;text-align:center;white-space:pre;shape-inside:url(#rect951);fill:#0085b0;fill-opacity:1;stroke:none"
       transform="matrix(2.0539093,0,0,2.0545237,-79.157077,-317.51465)"><tspan
         x="44.555296"
         y="180.66137"><tspan
           style="fill:#ffd42a">Stars</tspan><tspan
           style="font-style:normal;font-variant:normal;font-weight:normal;font-stretch:normal;font-size:17.3945px;font-family:Andhyta;-inkscape-font-specification:Andhyta;fill:#ffffff">Align</tspan></tspan></text>
    <g
       id="g1046"
       transform="matrix(0.99425016,0,0,0.99425016,1.4398749,-0.75943369)">
      <path
         id="path835"
         style="fill:#f2f2f2;stroke:none;stroke-width:0.555702;stroke-linecap:butt;stroke-linejoin:miter;stroke-miterlimit:4;stroke-dasharray:none;stroke-opacity:1"
         d="M 72.969189,67.912759 C 49.471787,54.107734 21.912499,72.642777 17.686604,93.694215 14.88118,107.66948 22.2115,124.04967 28.586973,140.84261 c 2.513299,-3.25881 6.183679,-7.59326 6.041386,-8.35557 -0.08972,-0.48059 -0.37775,-0.82605 -0.757539,-0.9087 -0.264283,-0.0576 -1.730319,-1.09781 -2.568492,-1.82236 -0.758831,-0.65592 -1.111139,-0.99798 -2.104811,-2.04355 -1.396191,-1.4682 -2.918682,-3.63331 -3.683152,-5.23419 -1.247049,-2.61151 -1.930304,-6.29456 -1.783955,-9.6198 0.02954,-0.6711 0.37197,-2.82303 0.610072,-3.83593 0.09967,-0.42406 0.159669,-0.87023 0.13353,-0.99126 -0.02878,-0.13334 -0.257429,-0.38137 -0.57999,-0.62994 -1.343454,-1.03505 -2.108904,-2.54307 -2.227956,-4.38909 -0.06564,-1.01759 -0.04373,-1.39962 0.137978,-2.41175 0.138502,-0.771438 0.229602,-1.031188 0.702884,-2.00649 0.298983,-0.616145 0.646782,-1.273829 0.772843,-1.461462 0.125994,-0.187679 0.268486,-0.412983 0.316379,-0.500998 0.221328,-0.406173 1.44663,-1.862337 1.940731,-2.30649 1.051982,-0.94565 1.341659,-1.180463 1.928196,-1.560771 0.869232,-0.563643 2.172242,-1.235017 2.860326,-1.474213 0.746093,-0.25936 1.853651,-0.529193 2.023533,-0.492731 0.07597,0.01606 0.228451,-0.0096 0.339053,-0.05787 0.110582,-0.04816 0.286218,-0.07064 0.389906,-0.04963 0.103571,0.0217 0.363693,0.01828 0.578108,-0.0059 0.667498,-0.0753 2.068985,0.115194 2.660588,0.361264 1.122027,0.466841 2.081631,1.1933 2.71667,2.056819 0.431258,0.586412 0.485774,0.600625 1.773393,0.453078 0.760828,-0.08715 1.35492,-0.132308 2.366894,-0.179691 0.232669,-0.01088 1.000658,0.01354 1.706919,0.05456 1.165654,0.06768 1.56972,0.136931 4.379599,0.74958 2.046116,0.44614 3.267349,0.748882 3.602289,0.89267 0.278701,0.119614 0.908402,0.364373 1.399633,0.544025 0.491221,0.17965 1.006465,0.390736 1.14495,0.468989 0.138459,0.07827 0.51628,0.264455 0.839081,0.413956 0.72732,0.336852 2.527202,1.375175 2.615524,1.508684 0.03583,0.05423 0.134374,0.113735 0.219324,0.132138 0.08496,0.01816 0.543703,0.339843 1.019363,0.714152 0.475627,0.374324 0.886521,0.685116 0.912893,0.690852 0.09596,0.02064 1.374837,1.315889 1.94999,1.974589 0.856089,0.98041 1.804592,2.41522 2.155201,3.25942 0.167646,0.40365 0.299515,0.75746 0.292701,0.78646 -0.0072,0.029 0.03627,0.17044 0.09562,0.31399 0.153203,0.37047 0.22948,1.01796 0.180065,1.5294 -0.05291,0.54756 -0.01749,0.68359 0.36093,1.3763 1.251855,2.29129 2.170193,6.20414 1.957732,8.34282 -0.04156,0.41812 -0.182974,1.06107 -0.348012,1.58306 -0.152846,0.48353 -0.348132,1.16622 -0.433944,1.51667 -0.151027,0.61862 -0.149527,0.6392 0.05985,0.71025 0.157598,0.0534 0.331789,9.4e-4 0.645973,-0.19484 0.236548,-0.14747 0.504094,-0.25201 0.594822,-0.23224 0.155122,0.0339 0.150225,0.0488 -0.08722,0.25308 -0.138765,0.1195 -0.508909,0.32876 -0.822252,0.46494 -0.313338,0.13621 -0.625652,0.32873 -0.693991,0.42787 -0.163095,0.23656 -0.03128,1.28855 0.209807,1.67441 0.09612,0.15373 0.154749,0.36459 0.130377,0.4683 -0.145826,0.62015 1.270896,3.20394 2.277756,4.15421 0.338678,0.31969 0.593251,0.73525 0.732608,1.1959 0.139825,0.4621 0.123768,0.51759 -0.284518,0.98314 -0.348797,0.39766 -0.691965,0.58734 -1.103663,0.60924 -0.44566,0.0237 -1.285203,0.25441 -1.449932,0.39839 -0.310349,0.27122 -0.281735,0.54295 0.145374,1.37976 0.496747,0.97321 0.480432,1.31374 -0.08661,1.79375 -0.187278,0.15858 -0.389031,0.30415 -0.448127,0.32369 -0.166236,0.0549 -0.155631,0.13318 0.08643,0.6289 0.401309,0.82191 0.178234,1.44962 -0.592087,1.66621 -0.235979,0.0664 -0.484833,0.2213 -0.626558,0.39068 -0.22972,0.27452 -0.233941,0.29643 -0.191785,0.94213 0.09699,1.48431 0.07816,1.79689 -0.130175,2.17844 -0.331669,0.60747 -0.893057,0.99777 -1.726192,1.20012 -0.699955,0.17 -0.780249,0.16973 -1.605012,-0.005 -0.477431,-0.10135 -1.056763,-0.27166 -1.287166,-0.37916 -0.460665,-0.21492 -1.434244,-0.56963 -2.697272,-0.98208 -1.996896,-0.65206 -3.910519,-0.63873 -4.90085,0.0345 -0.237345,0.16134 -0.991046,0.81252 -1.586015,1.37072 -1.112009,1.04331 -1.75745,2.24238 -2.466063,4.58022 -0.5461,1.80169 -1.172916,4.82296 -1.194178,5.7563 -0.01801,0.79106 0.122958,2.21827 0.254697,2.58245 0.04885,0.13535 0.280652,0.6102 0.515198,1.05504 2.059774,7.06993 2.716097,12.35639 2.39517,16.12455 7.331941,-2.0368 15.223706,-3.21276 23.125643,-4.20558 0.509115,-2.84047 2.816333,-6.68166 7.709753,-11.78295 1.018005,-0.27219 1.477648,-0.44486 4.270015,-1.60599 1.574297,-0.65461 4.841868,-2.20564 4.867722,-2.31053 0.0098,-0.0401 -0.11008,-0.23197 -0.266396,-0.4265 -0.156363,-0.19443 -0.373915,-0.62793 -0.483498,-0.96285 -0.295936,-0.90414 -0.540677,-1.27776 -1.103717,-1.68294 -0.904283,-0.65073 -1.759431,-0.96321 -3.584898,-1.3095 -1.543118,-0.29287 -1.781508,-0.30776 -3.583482,-0.22438 -2.686518,0.12421 -3.684641,0.0768 -4.837557,-0.23148 -1.111533,-0.29714 -1.755175,-0.69602 -2.234438,-1.38361 -0.649369,-0.93178 -0.578548,-1.88438 0.261571,-3.51731 0.300103,-0.58331 0.534985,-1.07368 0.521554,-1.08953 -0.01367,-0.0157 -0.226859,-0.17313 -0.473891,-0.34979 -0.24708,-0.1766 -0.552267,-0.48253 -0.678212,-0.67971 -0.194993,-0.30522 -0.20694,-0.4294 -0.08151,-0.8337 0.08118,-0.26115 0.267834,-0.62628 0.415185,-0.81172 0.147346,-0.18536 0.272622,-0.35258 0.278046,-0.37137 0.0057,-0.0188 -0.168971,-0.17971 -0.387288,-0.35719 -0.619497,-0.50437 -0.664737,-0.81309 -0.291133,-1.98528 0.173321,-0.54399 0.304514,-1.11655 0.291549,-1.27261 -0.02216,-0.26795 -0.07649,-0.30147 -0.981217,-0.60252 -1.038981,-0.34575 -1.334926,-0.5549 -1.886505,-1.3313 -0.451189,-0.63506 -0.510104,-1.0134 -0.281085,-1.8071 0.166011,-0.57541 0.295011,-0.78047 1.003856,-1.59751 0.874386,-1.00777 1.606981,-2.06749 1.734336,-2.50882 0.04348,-0.15052 0.411858,-0.82256 0.819053,-1.49367 0.407229,-0.67114 0.761835,-1.29375 0.787792,-1.38377 0.02605,-0.0901 -0.132895,-0.51641 -0.352775,-0.94743 -0.544775,-1.06783 -0.686028,-1.98798 -0.437896,-2.84838 0.10494,-0.36397 0.325558,-0.95446 0.490788,-1.31232 0.165245,-0.35788 0.445473,-0.96193 0.622364,-1.34224 0.176868,-0.3803 0.543505,-1.02957 0.814745,-1.44281 0.447614,-0.68193 0.51722,-0.85793 0.755314,-1.90798 0.260816,-1.15014 0.562188,-1.93878 1.146855,-3.0016 l 0.305792,-0.5559 -0.217937,-0.42023 c -0.346973,-0.66948 -0.773575,-1.98767 -0.869287,-2.68606 -0.182571,-1.33222 -0.08623,-1.89762 0.800266,-4.69142 0.726806,-2.29048 0.857877,-2.625309 1.247888,-3.189655 0.668014,-0.966612 1.902846,-1.948686 3.654509,-2.906408 1.68695,-0.922344 2.960164,-1.352723 4.269358,-1.443352 0.429125,-0.02971 0.939819,-0.08764 1.134728,-0.128743 0.194902,-0.04106 0.734613,-0.0077 1.199095,0.0742 0.464481,0.08196 0.922091,0.115731 1.017304,0.0748 0.10221,-0.04391 0.685001,0.06059 1.423714,0.255223 0.908865,0.239494 1.406103,0.318704 1.81763,0.289155 0.311531,-0.02234 1.332828,-0.01535 2.26957,0.01585 1.530234,0.05096 1.898211,0.103169 3.623895,0.513175 1.56849,0.372604 2.10359,0.456691 2.91815,0.459522 1.50286,0.0053 2.23322,0.111713 4.09887,0.597234 1.8278,0.475696 2.59548,0.800373 4.05319,1.714067 0.43883,0.275071 0.98837,0.672929 1.22131,0.884303 0.23299,0.211342 0.76095,0.624589 1.17336,0.918349 1.96563,1.40012 4.29744,4.6264 5.59004,7.7342 0.88309,2.12317 1.18363,3.19435 1.27344,4.53894 0.14943,2.23777 0.12741,2.64442 -0.19725,3.65812 l -0.29474,0.92091 0.26489,1.45886 c 0.30149,1.66117 0.30224,2.24207 0.007,4.1106 -0.11647,0.73246 -0.21982,1.52963 -0.23085,1.77103 -0.0303,0.66927 -0.91155,3.61503 -1.40202,4.68696 -0.54486,1.19075 -1.01529,1.84008 -2.05911,2.83955 -0.45393,0.4347 -1.02815,1.0835 -1.27598,1.4421 -0.24784,0.35861 -0.5592,0.77002 -0.6914,0.91439 -0.13228,0.14434 -0.34013,0.51328 -0.46189,0.81981 -0.32402,0.81586 -1.11317,1.65988 -2.18949,2.34164 -0.55177,0.34949 -0.98781,0.70672 -1.07974,0.88487 -0.2328,0.45121 -0.0245,1.48728 0.47259,2.35057 0.22868,0.39711 0.50666,1.02772 0.61756,1.40138 0.31934,1.07606 0.58858,1.3687 2.41831,2.63158 1.54836,1.0687 4.51705,3.44152 5.09727,4.07403 0.43287,0.47191 1.04569,0.86434 3.0504,1.9529 1.67503,0.90944 1.77911,1.20844 0.81545,2.91107 C 145.32241,136.02633 143.68734,88.674872 91.739501,88.852228 86.272087,78.659266 79.792451,71.921511 72.969189,67.912759 Z M 38.282681,176.51008 c -0.02269,0.0393 -0.04383,0.0783 -0.069,0.11809 l -0.202061,0.3206 c 0.166945,-0.0888 0.333091,-0.17864 0.501026,-0.2661 -0.07657,-0.0563 -0.153346,-0.11491 -0.229932,-0.17259 z" />
      <path
         sodipodi:type="star"
         style="opacity:1;fill:#0085b0;fill-opacity:1;stroke:none;stroke-width:0.267999;stroke-linecap:round;stroke-linejoin:round;stroke-miterlimit:4;stroke-dasharray:none;stroke-opacity:1"
         id="path1020"
         sodipodi:sides="5"
         sodipodi:cx="32.553429"
         sodipodi:cy="79.3256"
         sodipodi:r1="10.376255"
         sodipodi:r2="5.1881275"
         sodipodi:arg1="0.44751998"
         sodipodi:arg2="1.0758385"
         inkscape:flatsided="false"
         inkscape:rounded="0"
         inkscape:randomized="0"
         d="m 41.907862,83.815728 -6.890101,0.07537 -3.844019,5.718627 -2.200835,-6.529586 -6.626605,-1.888726 5.52991,-4.110872 -0.251448,-6.885924 5.618508,3.988927 6.471201,-2.367008 -2.057481,6.576165 z"
         inkscape:transform-center-x="0.33663912"
         inkscape:transform-center-y="0.48767056"
         transform="matrix(0.78958985,0,0,0.84582014,41.034118,16.414976)" />
    </g>
    <text
       xml:space="preserve"
       id="text1024"
       style="font-style:normal;font-variant:normal;font-weight:bold;font-stretch:normal;font-size:5.64444px;line-height:1.25;font-family:sans-serif;-inkscape-font-specification:'sans-serif Bold';text-align:center;letter-spacing:0.836083px;white-space:pre;shape-inside:url(#rect1026);fill:#e9c6af;fill-opacity:1;stroke:none"
       x="58.035908"
       y="0"
       transform="translate(1.9350853,6.5691916)"><tspan
         x="15.901314"
         y="11.510922"><tspan
           style="font-style:normal;font-variant:normal;font-weight:bold;font-stretch:normal;font-size:5.64444px;font-family:sans-serif;-inkscape-font-specification:'sans-serif Bold';text-align:center;text-anchor:middle;fill:#e9c6af">INTERNATIONAL BESTSELLER</tspan></tspan></text>
    <text
       xml:space="preserve"
       id="text1036"
       style="font-style:normal;font-variant:normal;font-weight:normal;font-stretch:normal;font-size:7.10579px;line-height:1.25;font-family:Anton;-inkscape-font-specification:Anton;letter-spacing:0.675711px;white-space:pre;shape-inside:url(#rect1038);fill:#ffd42a;fill-opacity:1;stroke:none;"
       transform="matrix(2.5141104,0,0,2.1300663,-25.928099,46.916339)"><tspan
         x="15.714844"
         y="69.636746"><tspan
           style="font-size:6.09779px;fill:#ffd42a">ANUBHAB SARKAR</tspan></tspan></text>
  </g>
</svg>
